<?xml version="1.0" standalone="no"?>
<!DOCTYPE svg PUBLIC "-//W3C//DTD SVG 20010904//EN"
 "http://www.w3.org/TR/2001/REC-SVG-20010904/DTD/svg10.dtd">
<svg version="1.0" xmlns="http://www.w3.org/2000/svg"
 width="1280.000000pt" height="640.000000pt" viewBox="0 0 1280.000000 640.000000"
 preserveAspectRatio="xMidYMid meet">
<metadata>
Created by potrace 1.15, written by Peter Selinger 2001-2017
</metadata>
<g transform="translate(0.000000,640.000000) scale(0.100000,-0.100000)"
fill="#000000" stroke="none">
<path d="M4972 6378 c-16 -16 -25 -19 -33 -11 -7 7 -22 8 -46 1 -19 -5 -41 -7
-50 -4 -8 3 -24 1 -36 -6 -24 -13 -118 -35 -207 -48 -55 -8 -77 -13 -180 -45
-105 -32 -270 -115 -401 -202 -27 -18 -55 -33 -63 -33 -8 0 -32 -20 -53 -43
-43 -49 -64 -62 -133 -83 -31 -9 -51 -21 -55 -34 -5 -17 -81 -61 -112 -66 -7
-1 -20 -9 -29 -18 -8 -9 -23 -16 -33 -16 -9 0 -45 -20 -80 -44 -34 -24 -74
-47 -89 -51 -15 -3 -36 -15 -47 -24 -11 -10 -38 -22 -60 -26 -22 -4 -53 -9
-70 -12 -16 -3 -36 -14 -43 -24 -7 -11 -24 -19 -36 -19 -13 0 -29 -7 -36 -15
-7 -9 -19 -14 -26 -11 -6 2 -22 -6 -35 -20 -15 -16 -29 -22 -41 -18 -13 4 -25
-3 -39 -20 -11 -14 -28 -26 -38 -26 -20 0 -192 -85 -238 -117 -17 -13 -36 -23
-41 -23 -5 0 -12 -7 -16 -15 -3 -8 -14 -15 -25 -15 -10 0 -41 -18 -67 -41 -27
-22 -64 -47 -82 -54 -19 -8 -36 -23 -39 -34 -3 -10 -17 -22 -31 -25 -17 -4
-40 -24 -61 -54 -22 -32 -47 -53 -75 -65 -57 -23 -74 -21 -89 10 -17 39 -42
61 -104 94 -73 39 -100 37 -172 -11 -63 -42 -113 -106 -152 -196 -29 -66 -66
-104 -101 -104 -16 0 -45 -7 -64 -15 -32 -13 -40 -13 -72 1 -20 8 -53 28 -72
43 -19 15 -50 36 -68 45 -18 9 -35 23 -38 31 -8 19 -72 28 -105 15 -91 -38
-179 -263 -163 -417 l6 -62 -57 -68 c-32 -37 -64 -72 -71 -76 -18 -10 -95
-130 -145 -225 -62 -118 -81 -152 -122 -220 -50 -83 -55 -113 -27 -149 12 -15
29 -31 37 -34 15 -5 26 -59 12 -59 -4 0 -4 -20 -2 -44 4 -33 -1 -57 -19 -98
-23 -49 -178 -254 -218 -288 -10 -8 -34 -36 -53 -61 -85 -113 -242 -286 -277
-304 -21 -11 -51 -30 -66 -42 -25 -19 -27 -24 -19 -49 16 -44 83 -86 140 -86
39 -1 45 -3 32 -13 -9 -7 -13 -16 -9 -20 4 -5 -1 -5 -12 -1 -14 5 -17 3 -12
-10 3 -8 6 -17 6 -19 0 -2 21 -16 48 -33 63 -41 170 -73 268 -81 78 -7 84 -10
143 -56 34 -26 64 -46 67 -43 3 3 -2 23 -10 43 -9 20 -13 41 -10 46 3 5 29 16
59 25 30 8 81 34 112 58 76 56 146 96 166 96 25 0 21 -41 -8 -84 -14 -20 -25
-40 -25 -44 0 -4 -20 -28 -45 -52 -54 -53 -60 -91 -19 -135 15 -16 22 -31 16
-37 -15 -15 -60 9 -77 42 -20 38 -33 39 -27 1 5 -38 -14 -48 -42 -22 -36 34
-52 25 -22 -13 28 -38 32 -56 15 -73 -15 -15 -1 -113 19 -138 23 -28 84 -51
170 -64 145 -22 241 -8 326 48 78 53 111 71 129 71 11 0 26 8 35 18 21 23 125
57 147 48 9 -3 25 -1 35 4 11 6 21 6 24 1 3 -5 33 -7 66 -4 43 4 60 2 60 -6 0
-7 8 -11 18 -9 24 4 52 -19 52 -43 0 -21 16 -26 22 -8 6 19 48 0 48 -21 0 -13
9 -22 25 -26 27 -7 30 -21 16 -72 -8 -25 -7 -32 2 -29 7 2 13 13 15 25 4 26
19 29 25 5 3 -14 6 -11 11 9 9 32 26 37 26 8 0 -11 5 -20 10 -20 6 0 10 7 10
15 0 8 7 15 15 15 13 0 15 7 9 35 -5 29 -3 35 11 35 9 0 19 -9 22 -20 9 -33
21 -23 20 16 -1 26 5 40 21 53 14 10 19 20 13 26 -5 6 -12 20 -16 33 -6 21 -4
23 17 20 18 -2 25 -12 34 -47 6 -26 13 -40 18 -33 4 6 3 27 -2 46 -10 36 -1
63 17 52 6 -4 8 -18 5 -31 -3 -12 -1 -26 5 -29 6 -4 11 -2 11 3 0 6 7 11 16
11 14 0 16 7 11 45 -7 46 1 56 23 30 23 -27 31 -4 10 29 -20 33 -27 86 -12 86
5 0 18 -18 31 -40 24 -43 48 -55 36 -17 -13 41 -11 72 5 72 10 0 16 -12 18
-32 2 -18 9 -33 15 -33 8 0 11 15 8 46 -2 35 -8 48 -22 51 -20 5 -23 20 -13
47 8 20 24 11 24 -14 0 -10 9 -21 19 -25 10 -3 21 -15 24 -26 9 -32 24 -14 19
22 -3 24 -1 30 9 27 8 -2 15 -17 17 -31 3 -25 22 -39 22 -17 0 29 -27 90 -39
90 -11 0 -12 3 -4 11 8 8 21 7 48 -2 35 -13 36 -15 30 -51 -5 -30 -4 -38 8
-38 9 0 17 10 19 23 2 16 9 21 26 19 12 -2 22 2 22 8 0 7 8 9 19 5 18 -5 19
-2 14 29 -5 32 -3 36 16 36 16 0 21 -6 21 -27 0 -41 18 -15 22 32 4 47 31 57
36 13 2 -16 8 -28 14 -28 6 0 8 15 6 35 -4 33 -2 35 24 35 17 0 31 7 38 20 6
11 17 20 24 20 7 0 25 9 40 21 15 12 33 18 45 14 24 -7 71 11 71 28 0 21 45
40 95 40 35 0 46 4 51 19 6 19 29 24 39 8 8 -13 52 -13 60 0 3 5 12 7 21 3 8
-3 26 5 40 18 19 18 29 21 41 13 20 -12 72 3 101 29 17 15 20 15 40 1 18 -13
26 -13 38 -4 23 20 101 31 132 19 52 -19 57 -50 20 -123 -7 -13 -6 -21 3 -27
11 -6 10 -12 -4 -27 -9 -10 -17 -28 -17 -39 0 -12 -18 -74 -41 -139 -55 -162
-59 -177 -59 -207 0 -15 -8 -53 -19 -84 -10 -32 -24 -85 -30 -118 -7 -33 -35
-116 -63 -185 -27 -69 -55 -138 -60 -155 -32 -93 -68 -149 -160 -252 -21 -24
-38 -48 -38 -55 0 -7 -39 -53 -86 -103 -84 -87 -184 -202 -271 -310 -22 -29
-56 -81 -74 -116 -96 -189 -142 -249 -221 -288 -52 -26 -73 -31 -137 -32 -42
0 -98 -4 -126 -9 -27 -6 -75 -13 -105 -16 -65 -8 -105 -27 -214 -101 -149
-102 -174 -123 -185 -153 -6 -17 -17 -30 -27 -30 -9 0 -41 -14 -70 -31 -50
-28 -54 -33 -54 -68 0 -28 -7 -44 -30 -66 -45 -43 -27 -47 37 -9 60 36 190 80
201 69 4 -4 -27 -39 -68 -77 -72 -68 -74 -70 -40 -63 19 4 53 16 75 26 22 10
69 25 105 34 36 9 73 18 83 21 25 8 21 -15 -13 -66 -32 -48 -26 -78 8 -47 12
11 47 20 103 26 81 8 86 7 139 -21 48 -25 68 -29 146 -31 71 -1 96 2 117 16
14 9 44 17 65 17 24 0 45 6 53 16 9 11 23 14 48 10 20 -4 43 -6 51 -6 352 5
390 8 435 34 23 14 62 44 85 66 32 31 49 40 76 40 22 0 37 6 41 16 3 8 11 13
19 10 7 -3 20 6 28 20 9 13 25 24 36 24 11 0 20 7 20 15 0 18 21 20 38 3 9 -9
12 -7 12 9 0 26 17 38 45 35 15 -2 24 6 32 28 10 27 15 30 31 21 16 -9 23 -6
35 12 15 22 15 22 31 2 14 -18 15 -19 16 -2 0 21 41 97 53 97 4 0 7 -7 7 -16
0 -21 19 -7 30 22 7 17 17 24 35 24 14 0 25 5 25 10 0 6 7 10 15 10 8 0 35 22
60 49 25 27 59 54 75 61 19 8 37 28 52 59 16 32 29 46 43 46 12 0 25 11 33 28
8 16 32 37 58 49 24 12 47 30 50 41 3 10 19 23 35 29 16 6 34 19 40 29 5 10
18 19 28 19 10 0 26 9 36 20 10 11 26 22 37 26 10 3 23 17 28 30 7 18 17 24
39 24 21 0 36 9 57 35 15 19 35 37 45 40 9 3 20 17 23 30 4 17 14 25 34 27 19
2 28 9 30 25 4 26 47 63 73 63 14 0 19 7 19 30 0 24 4 30 21 30 11 0 35 16 53
35 19 19 43 35 55 35 13 0 21 6 21 16 0 11 5 14 16 10 13 -5 15 0 9 34 -6 33
-4 40 9 40 22 0 66 29 66 44 0 6 14 20 30 29 19 12 30 26 30 41 0 13 10 31 21
42 12 10 28 34 36 52 7 17 20 32 28 32 9 0 18 13 22 30 3 17 13 36 22 43 9 7
24 29 33 50 10 20 22 37 28 37 5 0 10 8 11 18 1 9 23 37 50 61 l50 44 27 -19
c15 -11 34 -34 42 -51 8 -17 24 -34 35 -39 11 -5 21 -21 23 -36 2 -16 9 -28
16 -28 7 0 16 -19 22 -42 8 -39 12 -43 38 -43 16 -1 32 -7 34 -15 3 -8 16 -23
30 -35 14 -11 45 -39 70 -62 25 -24 52 -43 61 -43 20 0 68 -59 76 -93 4 -16
17 -29 35 -35 15 -6 31 -20 35 -31 3 -12 22 -28 40 -35 38 -16 148 -95 154
-111 2 -5 30 -36 62 -68 31 -32 60 -65 63 -73 3 -7 28 -26 55 -41 85 -48 136
-155 99 -206 -10 -13 -36 -18 -118 -23 -65 -3 -122 -12 -150 -24 -25 -10 -61
-21 -80 -25 -52 -11 -161 -86 -231 -157 -62 -65 -163 -198 -155 -206 3 -2 20
7 38 21 18 14 47 29 63 32 28 7 25 3 -35 -60 -36 -37 -56 -64 -45 -60 70 27
92 34 108 35 31 0 18 -16 -35 -45 -54 -29 -52 -45 4 -26 43 15 47 14 41 -9 -3
-11 0 -20 6 -20 6 0 11 6 11 13 0 7 19 20 42 30 36 16 57 18 157 11 149 -9
146 -9 216 5 126 24 229 33 260 22 17 -6 76 -9 132 -7 70 3 103 0 106 -8 3 -7
12 -4 25 8 16 14 36 19 76 18 41 0 59 4 71 18 9 10 31 22 49 26 48 10 84 32
91 55 4 11 16 30 26 40 10 10 19 28 19 38 0 11 5 23 10 26 6 3 10 24 10 46 0
38 26 79 50 79 6 0 10 6 10 14 0 7 7 19 15 26 8 7 15 23 15 37 0 13 7 26 15
29 8 4 15 17 15 31 0 14 13 37 30 55 17 16 30 39 30 50 0 33 33 96 52 101 15
4 16 9 6 37 -8 25 -8 34 2 40 16 10 40 79 30 85 -4 2 -10 27 -12 55 -4 36 -15
64 -37 95 -19 26 -33 59 -35 82 -4 45 -25 93 -66 148 -16 22 -29 51 -28 65 1
14 -14 59 -34 100 -19 41 -43 94 -53 117 -10 23 -26 50 -36 59 -11 10 -19 29
-19 43 -1 26 -28 115 -44 139 -4 7 -5 30 -1 50 6 34 8 35 20 18 10 -13 21 -17
38 -12 13 3 27 3 30 -1 4 -3 33 -7 64 -9 32 -1 89 -5 127 -7 40 -3 80 0 94 6
20 9 26 8 37 -6 11 -15 14 -16 25 -2 15 18 57 20 62 3 3 -9 9 -8 22 5 22 21
36 22 36 1 0 -10 6 -14 14 -11 8 3 22 -1 33 -8 24 -19 53 -19 74 1 14 12 22
13 38 4 12 -6 21 -18 21 -27 0 -13 3 -14 12 -5 17 17 38 15 38 -3 0 -19 14
-19 30 0 21 25 31 17 24 -20 -8 -43 0 -45 21 -5 9 16 20 30 26 30 7 0 8 -11 4
-30 -5 -23 -3 -30 8 -30 15 0 27 29 27 68 0 25 3 26 29 12 13 -6 17 -17 14
-35 -3 -15 -1 -25 6 -25 6 0 11 6 11 13 0 8 12 24 26 38 l27 24 -6 -42 c-5
-43 8 -59 20 -26 12 36 36 53 72 53 46 0 69 -14 55 -32 -6 -7 -19 -60 -29
-118 -10 -58 -22 -113 -27 -123 -7 -14 -5 -22 8 -31 14 -11 16 -23 11 -70 -3
-31 -2 -56 3 -56 7 0 4 -16 -20 -85 -3 -11 -2 -38 2 -60 5 -22 13 -83 18 -135
5 -52 15 -115 21 -140 11 -42 17 -113 23 -255 6 -122 18 -225 27 -219 18 11 8
-43 -19 -95 -20 -42 -34 -57 -57 -63 -16 -5 -120 -12 -231 -17 -259 -12 -380
-35 -416 -78 -6 -8 -57 -36 -112 -64 -56 -28 -109 -60 -119 -71 -10 -12 -28
-27 -39 -32 -23 -12 -72 -100 -66 -118 2 -6 14 5 27 25 12 20 29 37 37 37 19
0 18 -34 -2 -51 -20 -16 -47 -69 -36 -69 5 0 17 10 28 21 24 28 84 53 96 41 5
-5 -2 -24 -17 -46 -37 -55 -22 -57 28 -5 24 25 48 44 55 41 17 -5 15 -43 -4
-70 -19 -27 -5 -29 29 -2 28 22 68 26 99 9 20 -11 20 -11 -3 -35 -29 -31 -4
-34 34 -4 16 13 28 16 32 10 3 -5 25 -10 47 -10 28 0 51 -8 72 -24 30 -22 82
-37 136 -37 116 -1 172 2 193 12 20 9 35 8 71 -4 25 -9 46 -11 46 -6 0 5 11 7
25 3 14 -3 42 1 64 9 43 18 214 39 287 36 157 -6 358 16 391 43 7 6 19 8 28 5
8 -4 19 1 24 11 8 14 12 15 22 4 7 -6 22 -11 34 -11 16 1 17 2 3 6 -24 6 -23
22 5 85 26 58 59 109 97 150 14 14 54 63 89 107 46 57 71 81 87 81 15 0 23 8
27 28 6 31 43 76 70 85 10 4 15 12 12 18 -4 5 0 18 8 27 8 9 20 32 28 50 8 18
22 35 31 38 9 3 28 18 41 33 13 16 33 34 45 40 12 6 22 18 22 26 0 19 9 19 31
-1 16 -15 19 -12 37 30 15 32 28 47 47 52 23 6 25 10 20 35 -7 33 0 36 27 12
18 -16 22 -16 46 -2 20 11 28 25 32 54 4 35 9 41 34 45 16 3 32 13 35 22 3 9
25 31 49 48 23 17 48 42 54 55 6 14 17 25 24 25 7 0 18 9 25 21 9 17 17 20 45
15 30 -6 38 -2 69 29 20 19 53 46 74 60 21 13 49 40 61 60 19 31 27 36 51 33
24 -4 29 -1 29 17 0 17 14 29 64 54 35 17 73 31 86 31 18 0 21 -4 15 -28 -4
-21 1 -38 19 -64 13 -20 26 -49 28 -65 2 -23 7 -27 26 -25 20 3 22 -1 22 -37
0 -30 5 -43 20 -51 11 -6 30 -31 42 -57 13 -25 28 -46 33 -45 15 1 45 -29 45
-45 0 -7 11 -13 26 -13 26 0 84 -48 84 -70 0 -7 8 -9 20 -5 15 5 29 -2 50 -25
22 -24 37 -31 54 -28 15 3 27 -2 35 -14 12 -19 51 -25 51 -8 0 6 5 10 10 10 6
0 10 -8 10 -19 0 -23 48 -44 81 -36 18 4 30 0 43 -14 11 -12 28 -21 38 -21 11
0 29 -5 40 -11 46 -24 177 -53 253 -55 184 -5 273 -29 332 -90 24 -24 47 -44
53 -44 5 0 10 -18 10 -39 0 -30 -7 -47 -27 -69 -42 -44 -85 -58 -224 -75 -114
-14 -136 -20 -219 -60 -72 -36 -88 -40 -74 -24 10 12 -14 -8 -52 -45 -38 -37
-93 -89 -123 -115 -48 -43 -90 -107 -78 -120 3 -2 18 8 33 23 31 28 84 64 97
64 18 0 4 -37 -27 -70 -19 -19 -38 -48 -42 -65 -7 -29 -6 -29 12 -13 19 17 65
38 112 52 36 12 27 -17 -19 -53 -22 -18 -38 -35 -36 -37 2 -3 39 5 82 17 43
11 89 18 104 15 87 -18 122 -26 173 -42 52 -16 69 -16 171 -4 146 17 347 6
347 -18 0 -13 3 -12 15 4 11 14 14 15 15 4 0 -9 3 -11 8 -4 9 13 89 54 106 54
7 0 19 7 26 15 23 28 247 185 337 236 28 17 57 37 63 44 7 8 23 15 36 15 18 0
23 5 22 28 -1 15 5 44 11 64 9 29 10 60 1 135 -6 54 -13 119 -15 146 -2 26 -6
51 -10 56 -3 5 -10 32 -15 60 -5 29 -25 74 -45 103 -19 29 -35 60 -35 68 0 33
-50 120 -85 147 -22 18 -39 42 -46 66 -5 21 -21 48 -35 60 -27 23 -81 123 -96
177 -8 29 -28 112 -55 230 -3 14 -12 33 -21 42 -12 14 -12 21 -3 32 10 12 7
25 -13 68 -21 44 -23 55 -12 63 12 9 12 15 1 35 -8 14 -16 68 -20 120 -3 52
-12 138 -20 190 -23 158 -24 167 -14 177 6 6 6 20 -1 37 -5 15 -10 70 -10 122
0 68 -5 104 -16 126 -31 60 -80 256 -92 368 -5 45 -16 78 -35 108 -15 23 -30
57 -34 75 -3 18 -19 72 -34 122 -16 49 -29 98 -29 110 0 25 -24 95 -51 147
-19 37 -19 42 -5 50 9 5 27 28 41 52 33 56 33 139 0 206 -12 25 -30 68 -39 95
-9 28 -34 75 -56 104 -22 29 -45 71 -52 94 -7 23 -30 59 -50 79 -21 21 -38 43
-38 49 0 6 -30 41 -66 78 -37 36 -80 85 -96 109 -16 23 -33 42 -38 42 -5 0
-16 13 -24 29 -17 32 -119 141 -132 141 -5 0 -21 20 -36 43 -63 97 -80 117
-143 171 -36 31 -70 56 -74 56 -4 0 -22 23 -39 50 -20 32 -38 50 -50 50 -11 0
-35 18 -53 39 -19 21 -43 49 -55 62 -11 13 -35 33 -54 44 -18 11 -54 32 -79
47 -25 15 -64 37 -86 49 -22 12 -43 27 -47 34 -4 7 -20 16 -35 20 -15 3 -38
14 -52 24 -14 9 -60 32 -101 50 -41 18 -91 41 -110 51 -19 9 -47 20 -61 24
-15 3 -29 15 -32 26 -4 16 -13 20 -45 20 -26 0 -42 5 -46 15 -3 8 -18 15 -33
15 -16 0 -51 12 -78 27 -53 28 -288 113 -312 113 -8 0 -27 9 -43 20 -45 32
-184 60 -370 76 -41 3 -124 16 -185 30 -140 30 -300 36 -515 18 -91 -7 -210
-16 -265 -19 -55 -3 -129 -14 -165 -25 -36 -10 -83 -22 -105 -25 -22 -4 -87
-15 -145 -27 -58 -11 -148 -28 -200 -38 -52 -10 -126 -24 -165 -30 -38 -7
-124 -24 -190 -37 -191 -40 -617 -58 -745 -32 -30 6 -75 12 -100 13 -59 4
-197 42 -229 63 -48 32 -95 53 -118 53 -24 0 -38 16 -38 44 0 12 -8 20 -20 21
-31 3 -65 16 -65 25 0 5 -21 16 -47 26 -27 10 -54 26 -61 35 -7 10 -20 18 -30
18 -32 0 -77 14 -94 28 -11 10 -27 13 -47 8 -26 -6 -31 -4 -31 13 0 17 -9 21
-71 27 -59 6 -72 11 -77 27 -3 14 -11 18 -25 14 -12 -3 -27 0 -35 7 -14 11
-36 15 -147 22 -33 2 -80 8 -105 14 -34 7 -53 6 -79 -5 -19 -8 -43 -12 -53 -8
-11 3 -57 6 -104 5 -65 0 -86 4 -91 15 -7 19 -15 18 -41 -8z"/>
</g>
</svg>
